<svg width="79" height="92" viewBox="0 0 79 92" fill="none" xmlns="http://www.w3.org/2000/svg">
<mask id="mask0_704_6294" style="mask-type:alpha" maskUnits="userSpaceOnUse" x="0" y="0" width="79" height="92">
<rect width="79" height="92" rx="10" fill="#BDACAC"/>
</mask>
<g mask="url(#mask0_704_6294)">
<g clip-path="url(#clip0_704_6294)">
<path d="M55.7196 39.6428L41.6711 58.3274L48.5456 62.3992L55.7196 39.6428Z" fill="#00B6AA"/>
<path d="M72.7504 72.1813L69.8312 108.926H51.0413L55.2624 92.0523L49.0344 92.0075L41.9077 109H24.3386L42.0451 71.2971" fill="#171766"/>
<path d="M55.7196 39.6431L41.6711 73.3031C41.6711 73.3031 65.475 81.7421 78.8162 74.7312L74.2572 40.2698L55.7196 39.6431Z" fill="#171766"/>
<path d="M70.8944 31.4858L62.6325 32.4976L62.1572 37.8364C64.7948 37.3081 67.4369 36.8 70.0926 36.3344L70.8944 31.4858Z" fill="#171766"/>
<path d="M71.4147 40.0816L70.775 46.7165L64.6258 53.0962L63.6235 54.137L63.351 53.4543L60.5354 46.4165L60.7561 39.2937H68.7568L71.4147 40.0816Z" fill="white"/>
<path d="M62.1593 37.8364L61.925 40.4689L65.4344 44.1131L69.3671 40.7599L70.0969 36.3367C67.4368 36.8 64.7947 37.3082 62.1593 37.8364Z" fill="#F2583E"/>
<path d="M75.7531 26.5599C76.624 21.3012 73.0405 16.3365 67.7489 15.471C62.4574 14.6055 57.4618 18.1668 56.5909 23.4255C55.7199 28.6842 59.3035 33.6489 64.595 34.5144C69.8866 35.38 74.8822 31.8186 75.7531 26.5599Z" fill="#F2583E"/>
<path d="M70.3981 30.0678C70.5935 28.8756 69.7793 27.7519 68.5798 27.5578C67.3802 27.3637 66.2494 28.1727 66.0541 29.3649C65.8588 30.557 66.6729 31.6808 67.8725 31.8749C69.072 32.069 70.2028 31.2599 70.3981 30.0678Z" fill="#F6EF97"/>
<path d="M63.5266 15.7983C62.5715 15.87 61.6143 15.9416 60.657 16.0132C60.4002 16.0334 60.1367 16.0535 59.9047 16.1632C59.6727 16.2729 59.4744 16.4967 59.4722 16.7519C59.4699 17.0295 59.6839 17.2578 59.9069 17.4235C60.5714 17.9204 61.4431 18.1398 62.2652 18.0144C61.9476 18.4465 61.2606 18.7106 61.3169 19.2434C61.3597 19.6508 61.835 19.8545 62.2427 19.9149C62.9522 20.0201 63.6865 19.944 64.3577 19.6933C64.2474 20.1096 64.1437 20.5752 64.3555 20.9491C64.565 21.3229 65.0245 21.4841 65.4547 21.5378C67.0922 21.7415 68.6396 20.8439 70.0587 20.0067C70.2389 19.8992 70.4821 19.7963 70.642 19.9306C70.7344 20.0067 70.7592 20.132 70.7772 20.2507C71.034 21.9251 70.6421 23.6263 70.6533 25.3186C70.6578 26.1602 70.802 27.078 71.4259 27.6466C71.8922 28.0719 72.5499 28.2241 73.1806 28.2823C73.8225 28.3405 74.5005 28.3114 75.0613 27.9958C75.4285 27.7899 75.7213 27.472 75.9713 27.134C76.7935 26.0192 77.1967 24.5597 76.8498 23.2211C76.7349 22.7801 76.5367 22.3481 76.2101 22.028" fill="#00B6AA"/>
<path d="M74.8452 32.4975C76.8592 32.4975 78.4919 30.8749 78.4919 28.8734C78.4919 26.8718 76.8592 25.2493 74.8452 25.2493C72.8312 25.2493 71.1985 26.8718 71.1985 28.8734C71.1985 30.8749 72.8312 32.4975 74.8452 32.4975Z" fill="#F2583E"/>
<path d="M78.0459 15.7471L77.4873 17.9901L76.5458 21.7574L63.5042 15.7471L65.3309 13.6608L67.741 10.9053C67.741 10.9053 74.3091 11.3798 78.0459 15.7471Z" fill="#171766"/>
<path d="M77.4873 17.9901L76.5458 21.7575L63.5042 15.7471L65.3309 13.6609L77.4873 17.9901Z" fill="#00B6AA"/>
<path d="M60.389 13.1997L81.4223 23.0177C81.4223 23.0177 79.6001 26.747 67.741 20.3293C59.6029 15.9262 60.389 13.1997 60.389 13.1997Z" fill="#171766"/>
<path d="M57.9044 21.0164C57.9044 21.0164 56.7557 23.5257 58.5238 24.0943C60.292 24.6628 61.7245 22.4647 61.7245 22.4647C61.7245 22.4647 59.5892 24.0987 58.4811 23.1675C57.6612 22.4803 57.9044 21.0164 57.9044 21.0164Z" fill="#171766"/>
<path d="M64.7069 23.9399C64.7069 23.9399 63.5582 26.4493 65.3263 27.0178C67.0945 27.5864 68.5271 25.3882 68.5271 25.3882C68.5271 25.3882 66.3918 27.0223 65.2835 26.0911C64.4614 25.4039 64.7069 23.9399 64.7069 23.9399Z" fill="#171766"/>
<path d="M63.7158 21.3521L59.4722 25.2L61.594 26.7871L64.146 21.7572L63.7158 21.3521Z" fill="#FFB459"/>
<path d="M72.9983 30.3309L72.7505 27.797L76.7463 26.4517V27.112L73.4285 28.1619L74.1042 30.5749L72.9983 30.3309Z" fill="#171766"/>
<path d="M65.4345 44.1111L63.2158 46.081L60.1277 38.9358L62.1594 37.8367L65.4345 44.1111Z" fill="#00B6AA"/>
<path d="M66.9029 46.7162L65.4343 44.1106L69.759 38.3667L72.0182 40.1217L66.9029 46.7162Z" fill="#00B6AA"/>
<path d="M65.9749 44.1111L64.6257 53.0963L63.6234 54.1372L63.3508 53.4545L65.0582 44.1111H65.9749Z" fill="#00B6AA"/>
<path d="M59.7085 31.3561C59.7085 31.3561 55.0573 31.8777 52.9647 33.8162C52.1539 34.5705 51.6245 37.5611 51.0321 41.9396C51.0299 41.9463 51.0299 41.953 51.0276 41.9598C50.0929 48.8543 48.9892 59.1736 46.3448 69.6161C42.0134 86.7069 31.258 92.8225 31.258 92.8225C23.8272 92.4665 18.3402 90.7474 14.3151 88.2358C3.55294 81.5226 3.24886 69.1528 4.22417 62.0814C2.7826 59.1222 3.28265 54.8265 3.40653 54.7929C9.5174 53.2014 15.7522 56.2592 20.4305 59.684C22.068 60.8838 23.5163 62.1284 24.6989 63.232C26.5751 64.9847 27.7937 66.386 28.0663 66.7017V66.7039C28.1045 66.7487 28.1226 66.771 28.1226 66.771L24.4669 70.4489L26.181 74.2789C26.181 74.2789 47.3291 34.0176 51.0344 31.1121C56.7466 28.8736 58.6094 29.3638 58.6094 29.3638L59.7085 31.3561Z" fill="#F6EF97"/>
<path d="M44.8891 45.539C45.7899 44.6439 45.7899 43.1925 44.8891 42.2974C43.9884 41.4022 42.528 41.4022 41.6273 42.2974C40.7265 43.1925 40.7265 44.6439 41.6273 45.539C42.528 46.4342 43.9884 46.4342 44.8891 45.539Z" fill="#FFB459"/>
<path d="M48.0202 40.6391C48.921 39.744 48.921 38.2926 48.0202 37.3975C47.1195 36.5023 45.6591 36.5023 44.7584 37.3975C43.8576 38.2926 43.8576 39.744 44.7584 40.6391C45.6591 41.5343 47.1195 41.5343 48.0202 40.6391Z" fill="#FFB459"/>
<path d="M42.426 49.5804C42.7173 48.348 41.9482 47.1142 40.7081 46.8247C39.468 46.5352 38.2265 47.2996 37.9352 48.532C37.6439 49.7644 38.413 50.9981 39.6531 51.2877C40.8932 51.5772 42.1346 50.8128 42.426 49.5804Z" fill="#FFB459"/>
<path d="M39.3521 54.7301C39.6461 53.4983 38.8797 52.2629 37.6402 51.9708C36.4008 51.6786 35.1576 52.4403 34.8636 53.672C34.5696 54.9038 35.3361 56.1392 36.5755 56.4314C37.815 56.7236 39.0581 55.9619 39.3521 54.7301Z" fill="#FFB459"/>
<path d="M36.2784 59.8705C36.5724 58.6387 35.8059 57.4033 34.5665 57.1112C33.327 56.819 32.0839 57.5807 31.7899 58.8124C31.4959 60.0442 32.2623 61.2796 33.5018 61.5718C34.7412 61.8639 35.9844 61.1023 36.2784 59.8705Z" fill="#FFB459"/>
<path d="M33.2011 65.0003C33.4924 63.7679 32.7233 62.5342 31.4832 62.2447C30.2431 61.9551 29.0017 62.7195 28.7104 63.9519C28.419 65.1843 29.1882 66.4181 30.4282 66.7076C31.6683 66.9971 32.9098 66.2327 33.2011 65.0003Z" fill="#FFB459"/>
<path d="M47.0183 34.66L53.0391 37.1627L54.3455 35.9113L47.9351 33.261" fill="#F2583E"/>
<path d="M51.0277 41.96C50.0929 48.8545 48.9892 59.1738 46.3448 69.6163C42.0134 86.7071 31.258 92.8226 31.258 92.8226C31.258 92.8226 25.0773 90.9222 22.6401 88.236L30.6183 89.5231C30.6183 89.5231 48.7257 55.843 51.0277 41.96Z" fill="#FFB459"/>
<path d="M20.4306 59.6841C18.2615 62.3367 16.3965 65.2288 15.045 68.3671C13.2115 72.6247 12.8489 77.8896 13.1529 82.5098C13.2813 84.4573 13.6778 86.3891 14.3175 88.2359C3.55529 81.5227 3.25121 69.1528 4.22652 62.0815C2.7827 59.1222 3.285 54.8266 3.40663 54.793C9.51976 53.2014 15.7523 56.2592 20.4306 59.6841Z" fill="#FFB459"/>
<path d="M28.0662 66.7014L24.4668 70.4486C7.05537 71.3664 5.18359 58.269 5.18359 58.269L16.1507 59.2137L24.6965 63.2318C26.575 64.9845 27.7936 66.3858 28.0662 66.7014Z" fill="#FFB459"/>
<path d="M28.1225 66.771C9.78766 72.2799 3.40649 54.7929 3.40649 54.7929C15.5291 51.6344 28.1225 66.771 28.1225 66.771Z" fill="#171766"/>
<path d="M57.8662 27.5283L59.1659 32.5403L60.3394 32.0903L59.5555 27.5283H57.8662Z" fill="#171766"/>
<path d="M60.7246 27.8999L58.801 28.6811L59.4317 30.6846L61.5783 31.0786L60.7246 27.8999Z" fill="#171766"/>
<path d="M10.8758 36.1868C4.04411 46.0607 12.0515 56.313 17.7637 65.0318C16.9416 64.949 16.1217 64.799 15.4054 64.5326C12.68 63.5276 -0.699536 52.221 1.41776 41.6241C2.18134 37.7895 4.0779 34.2998 5.45189 30.6376C6.82588 26.9732 7.43403 22.6104 5.26493 19.349C4.47883 18.1648 3.38639 17.2224 2.33 16.2711C-0.426991 13.7931 -3.08262 11.089 -4.72465 7.77603C-6.36668 4.46085 -6.87573 0.420394 -5.29001 -2.92165L1.57994 -3H15.0428C13.3985 0.207739 13.3129 4.08926 15.6059 7.75813C18.0836 11.3397 21.0118 14.2497 20.5613 18.7267C19.8855 25.6659 14.7049 30.3668 10.8758 36.1868Z" fill="#00B6AA"/>
<path d="M50.2934 12.0112C43.9866 14.2497 34.9768 14.6974 34.3011 22.7559C33.8506 28.1283 34.3011 34.396 29.1205 37.5299C25.0661 39.7684 20.3359 41.1114 18.3087 45.3646C15.6959 51.5293 16.6374 59.1043 20.0093 65.1102C19.3201 65.1258 18.5407 65.1102 17.7636 65.0318C12.0515 56.313 4.04402 46.0607 10.8757 36.1868C14.7048 30.3668 19.8854 25.6659 20.5612 18.7267C21.0117 14.2497 18.0835 11.3397 15.6058 7.75813C13.3128 4.08926 13.3984 0.207739 15.0427 -3H58.8122C59.1725 3.23192 56.2579 9.85558 50.2934 12.0112Z" fill="#7BD6AA"/>
<path d="M85.6906 -3C84.6071 0.386817 83.3525 3.74677 81.3659 6.69485C79.19 9.92049 76.0208 12.6425 72.2187 13.5468C69.8852 14.102 67.448 13.9542 65.056 14.1423C62.6639 14.3303 60.1501 14.9369 58.4878 16.6561C56.6183 18.5856 56.1858 21.527 54.4514 23.5752C50.8228 27.8686 43.4302 26.4807 39.1641 30.1496C34.6277 34.049 35.2877 42.2128 30.1138 45.2325C28.0844 46.4166 19.2458 48.4357 19.0431 54.2894C18.8764 59.1289 22.3789 64.9355 22.3789 64.9355C22.3789 64.9355 21.3653 65.0788 20.0093 65.1102C16.6374 59.1043 15.6959 51.5293 18.3088 45.3645C20.336 41.1114 25.0661 39.7683 29.1205 37.5299C34.3011 34.396 33.8506 28.1283 34.3011 22.7559C34.9768 14.6974 43.9866 14.2497 50.2934 12.0112C56.2579 9.85558 59.1726 3.23192 58.8122 -3H85.6906Z" fill="#00B6AA"/>
<path d="M86.9948 70.4937C86.1411 75.3199 82.2444 79.8931 76.5007 82.9867C69.6893 86.6555 60.2808 88.2426 50.2777 85.7019C48.4443 85.2363 46.5905 84.6319 44.73 83.8753L52.1923 63.5119C53.5978 63.8119 55.0799 64.1029 56.5778 64.3558C63.4162 65.5131 70.6263 65.8959 72.7503 63.0038C77.1133 57.0673 72.7503 46.0831 72.7503 46.0831C72.7503 46.0831 70.7412 43.6364 74.2572 40.2698C74.2572 40.2698 85.7289 53.0313 87.1097 65.1885C87.3146 66.9838 87.3011 68.7678 86.9948 70.4937Z" fill="#00B6AA"/>
<path d="M48.2123 62.1889L47.0185 54.3587L45.5656 53.7252L44.498 58.7484L37.8465 53.5193L36.7338 55.1041L40.1823 59.8833L34.8012 58.1955L33.5466 60.7854L39.8354 64.4789L31.4653 64.358L30.9563 66.3905L49.111 73.6208L52.7487 66.3905L48.2123 62.1889Z" fill="#F1573D"/>
<path d="M31.4653 66.122L31.7244 64.479C31.7244 64.479 33.265 64.9401 33.1119 65.7706C32.961 66.6011 31.4653 66.122 31.4653 66.122Z" fill="#171766"/>
<path d="M34.4497 60.3868L35.1885 58.7773C35.1885 58.7773 37.0625 59.91 36.8328 60.689C36.6076 61.468 34.4497 60.3868 34.4497 60.3868Z" fill="#171766"/>
<path d="M37.3398 55.1802L38.0989 54.1997C38.0989 54.1997 39.973 55.6323 39.313 56.2748C38.6575 56.915 37.3398 55.1802 37.3398 55.1802Z" fill="#171766"/>
<path d="M45.845 54.4753L47.059 54.8536C47.059 54.8536 47.3631 57.0921 46.7054 56.9422C46.0477 56.7899 45.845 54.4753 45.845 54.4753Z" fill="#171766"/>
<path d="M57.5373 61.101L56.5778 64.3558L50.2777 85.7019L49.1492 89.523L43.8042 86.3981L44.73 83.8753L52.1923 63.5119L53.5235 59.8833L57.5373 61.101Z" fill="white"/>
<path d="M86.9949 70.4939C86.1412 75.3201 82.2445 79.8933 76.5007 82.9868C75.2641 80.2649 75.0299 77.0907 75.9264 74.2344C77.2575 69.9858 81.0079 66.6549 85.3303 65.4932C85.9002 65.3387 86.5061 65.229 87.1097 65.1887C87.3147 66.984 87.3012 68.768 86.9949 70.4939Z" fill="#FFB459"/>
<path d="M37.1076 50.0744L31.7266 46.5958L38.8713 33.7805L43.8041 34.6602L37.1076 50.0744Z" fill="white"/>
<path d="M38.5469 36.2003L46.453 35.2131L47.4621 36.4309L42.8896 38.8171L49.7596 43.7574L48.5275 45.2527L42.9639 43.2515L46.0588 47.9411L43.8942 49.8438L38.6077 44.8319L40.9998 52.8053L39.1686 53.844L33.5825 46.6361" fill="#F1573D"/>
<path d="M39.2902 53.2843L40.8106 52.5881C40.8106 52.5881 39.9456 51.2406 39.1843 51.6122C38.4207 51.9838 39.2902 53.2843 39.2902 53.2843Z" fill="#171766"/>
<path d="M44.0338 48.8727L45.392 47.7289C45.392 47.7289 43.786 46.2448 43.0945 46.6745C42.4008 47.1043 44.0338 48.8727 44.0338 48.8727Z" fill="#171766"/>
<path d="M48.2909 44.691L49.0342 43.6972C49.0342 43.6972 47.1377 42.2959 46.6939 43.0995C46.2525 43.9053 48.2909 44.691 48.2909 44.691Z" fill="#171766"/>
<path d="M46.6602 36.3659L45.9642 35.3071C45.9642 35.3071 43.714 35.625 44.0383 36.2137C44.3649 36.8024 46.6602 36.3659 46.6602 36.3659Z" fill="#171766"/>
<path d="M-9.33761 83.7856L-1.81671 87.6805L3.55311 76.5889L1.15876 95.354L-4.21106 92.0299L-12 105.344L-9.33761 83.7856Z" fill="#FFB459"/>
<path d="M9.42745 87.7996L12.3917 99.7172L5.47217 101.369L10.4996 107.388V102.195L18.0138 101.723L9.42745 87.7996Z" fill="#F6EF97"/>
<path d="M27.6587 58.3277L36.7 51.8965L34.6908 49.123L27.6587 58.3277Z" fill="#00B6AA"/>
<path d="M23.6179 56.2747L28.3548 41.3777L25.109 41.9597L23.6179 56.2747Z" fill="#F1573D"/>
<path d="M1.15883 53.7255L-9.58081 47.5204L-6.39586 42.9897L1.15883 53.7255Z" fill="#00B6AA"/>
<path d="M83.0148 29.7151L87.2471 35.4971L94.1193 27.8997L89.1842 42.9892L82.6611 35.4456L75.3857 39.0182L83.0148 29.7151Z" fill="#FFB459"/>
<path d="M74.7483 86.9421L89.8757 103.767L95 96.9347L74.7483 86.9421Z" fill="#FFB459"/>
<path d="M78.8162 85.899L92.8849 88.236V83.9717L78.8162 85.899Z" fill="#F6EF97"/>
<path d="M40.2026 31.4857C41.1991 31.4857 42.0069 30.6829 42.0069 29.6927C42.0069 28.7024 41.1991 27.8997 40.2026 27.8997C39.2062 27.8997 38.3984 28.7024 38.3984 29.6927C38.3984 30.6829 39.2062 31.4857 40.2026 31.4857Z" fill="#FFB459"/>
<path d="M-0.508201 65.8675C0.0317771 64.5978 -0.56619 63.1335 -1.8438 62.5968C-3.12141 62.0602 -4.59485 62.6545 -5.13483 63.9242C-5.67481 65.1939 -5.07684 66.6582 -3.79923 67.1948C-2.52162 67.7314 -1.04818 67.1372 -0.508201 65.8675Z" fill="#171766"/>
</g>
</g>
<defs>
<clipPath id="clip0_704_6294">
<rect width="107" height="112" fill="white" transform="translate(-12 -3)"/>
</clipPath>
</defs>
</svg>
